HIERARCHY
ROOT Hips
{
	OFFSET -0.000008 104.274872 1.554316
	CHANNELS 6 Xposition Yposition Zposition Xrotation Yrotation Zrotation
	JOINT Spine
	{
		OFFSET -0.000005 10.181587 0.131521
		CHANNELS 6 Xposition Yposition Zposition Xrotation Yrotation Zrotation
		JOINT Spine1
		{
			OFFSET -0.000000 9.893967 -1.470711
			CHANNELS 3 Xrotation Yrotation Zrotation
			JOINT Spine2
			{
				OFFSET -0.000000 9.220772 -1.370643
				CHANNELS 3 Xrotation Yrotation Zrotation
				JOINT Neck
				{
					OFFSET 0.000001 16.740387 -2.049035
					CHANNELS 6 Xposition Yposition Zposition Xrotation Yrotation Zrotation
					JOINT Head
					{
						OFFSET 0.000000 9.617889 1.685008
						CHANNELS 6 Xposition Yposition Zposition Xrotation Yrotation Zrotation
						JOINT HeadTop_End
						{
							OFFSET 0.000002 22.037369 7.501095
							CHANNELS 6 Xposition Yposition Zposition Xrotation Yrotation Zrotation
							End Site
							{
								OFFSET 0.000002 23.106552 -2.828258
							}
						}
					}
				}
				JOINT RightShoulder
				{
					OFFSET -4.569969 11.014908 -2.160884
					CHANNELS 6 Xposition Yposition Zposition Xrotation Yrotation Zrotation
					JOINT RightArm
					{
						OFFSET -10.592846 -0.524811 -2.232097
						CHANNELS 3 Xrotation Yrotation Zrotation
						JOINT RightForeArm
						{
							OFFSET -27.841518 0.000000 -0.000004
							CHANNELS 3 Xrotation Yrotation Zrotation
							JOINT RightHand
							{
								OFFSET -28.328838 0.000000 0.000019
								CHANNELS 3 Xrotation Yrotation Zrotation
								JOINT RightHandThumb1
								{
									OFFSET -2.464806 -1.573990 2.681852
									CHANNELS 6 Xposition Yposition Zposition Xrotation Yrotation Zrotation
									JOINT RightHandThumb2
									{
										OFFSET -3.215187 -1.872772 1.924281
										CHANNELS 3 Xrotation Yrotation Zrotation
										JOINT RightHandThumb3
										{
											OFFSET -2.654839 -1.527985 1.512611
											CHANNELS 3 Xrotation Yrotation Zrotation
											JOINT RightHandThumb4
											{
												OFFSET -2.018822 -1.152008 1.108052
												CHANNELS 3 Xrotation Yrotation Zrotation
												End Site
												{
													OFFSET -1.888100 -1.145340 1.324313
												}
											}
										}
									}
								}
								JOINT RightHandIndex1
								{
									OFFSET -9.108284 -0.517868 2.259834
									CHANNELS 6 Xposition Yposition Zposition Xrotation Yrotation Zrotation
									JOINT RightHandIndex2
									{
										OFFSET -3.699997 0.000015 0.001215
										CHANNELS 3 Xrotation Yrotation Zrotation
										JOINT RightHandIndex3
										{
											OFFSET -2.850006 0.000000 -0.000521
											CHANNELS 3 Xrotation Yrotation Zrotation
											JOINT RightHandIndex4
											{
												OFFSET -2.772186 0.000000 -0.000020
												CHANNELS 3 Xrotation Yrotation Zrotation
												End Site
												{
													OFFSET -2.772186 0.000000 -0.000502
												}
											}
										}
									}
								}
								JOINT RightHandMiddle1
								{
									OFFSET -9.532501 -0.000046 -0.000025
									CHANNELS 6 Xposition Yposition Zposition Xrotation Yrotation Zrotation
									JOINT RightHandMiddle2
									{
										OFFSET -3.699997 0.000015 0.003713
										CHANNELS 3 Xrotation Yrotation Zrotation
										JOINT RightHandMiddle3
										{
											OFFSET -2.949997 0.000000 -0.002054
											CHANNELS 3 Xrotation Yrotation Zrotation
											JOINT RightHandMiddle4
											{
												OFFSET -2.946632 0.000015 -0.000155
												CHANNELS 3 Xrotation Yrotation Zrotation
												End Site
												{
													OFFSET -2.946625 0.000000 -0.001135
												}
											}
										}
									}
								}
								JOINT RightHandRing1
								{
									OFFSET -9.103592 -0.043076 -1.865134
									CHANNELS 6 Xposition Yposition Zposition Xrotation Yrotation Zrotation
									JOINT RightHandRing2
									{
										OFFSET -3.379272 0.000000 -0.001054
										CHANNELS 3 Xrotation Yrotation Zrotation
										JOINT RightHandRing3
										{
											OFFSET -2.889687 0.000000 0.000379
											CHANNELS 3 Xrotation Yrotation Zrotation
											JOINT RightHandRing4
											{
												OFFSET -2.638817 0.000000 0.000942
												CHANNELS 3 Xrotation Yrotation Zrotation
												End Site
												{
													OFFSET -2.638802 0.000000 0.005160
												}
											}
										}
									}
								}
								JOINT RightHandPinky1
								{
									OFFSET -8.076675 -0.486710 -3.806279
									CHANNELS 6 Xposition Yposition Zposition Xrotation Yrotation Zrotation
									JOINT RightHandPinky2
									{
										OFFSET -3.599998 -0.000031 -0.003747
										CHANNELS 3 Xrotation Yrotation Zrotation
										JOINT RightHandPinky3
										{
											OFFSET -2.099991 -0.000015 -0.005740
											CHANNELS 3 Xrotation Yrotation Zrotation
											JOINT RightHandPinky4
											{
												OFFSET -2.115776 -0.000015 -0.003680
												CHANNELS 3 Xrotation Yrotation Zrotation
												End Site
												{
													OFFSET -2.115784 -0.000015 -0.003507
												}
											}
										}
									}
								}
							}
						}
					}
				}
				JOINT LeftShoulder
				{
					OFFSET 4.570447 11.014709 -2.160855
					CHANNELS 6 Xposition Yposition Zposition Xrotation Yrotation Zrotation
					JOINT LeftArm
					{
						OFFSET 10.592369 -0.524597 -2.232120
						CHANNELS 3 Xrotation Yrotation Zrotation
						JOINT LeftForeArm
						{
							OFFSET 27.841522 -0.000031 0.000023
							CHANNELS 3 Xrotation Yrotation Zrotation
							JOINT LeftHand
							{
								OFFSET 28.328835 -0.000031 0.000018
								CHANNELS 3 Xrotation Yrotation Zrotation
								JOINT LeftHandThumb1
								{
									OFFSET 2.466141 -1.576187 2.681734
									CHANNELS 6 Xposition Yposition Zposition Xrotation Yrotation Zrotation
									JOINT LeftHandThumb2
									{
										OFFSET 3.217804 -1.872055 1.916487
										CHANNELS 3 Xrotation Yrotation Zrotation
										JOINT LeftHandThumb3
										{
											OFFSET 2.656013 -1.528809 1.514505
											CHANNELS 3 Xrotation Yrotation Zrotation
											JOINT LeftHandThumb4
											{
												OFFSET 2.020889 -1.154068 1.115134
												CHANNELS 3 Xrotation Yrotation Zrotation
												End Site
												{
													OFFSET 1.908852 -1.150833 1.300489
												}
											}
										}
									}
								}
								JOINT LeftHandIndex1
								{
									OFFSET 9.109306 -0.518036 2.259871
									CHANNELS 6 Xposition Yposition Zposition Xrotation Yrotation Zrotation
									JOINT LeftHandIndex2
									{
										OFFSET 3.699997 -0.000015 -0.000323
										CHANNELS 3 Xrotation Yrotation Zrotation
										JOINT LeftHandIndex3
										{
											OFFSET 2.850006 -0.000015 0.000350
											CHANNELS 3 Xrotation Yrotation Zrotation
											JOINT LeftHandIndex4
											{
												OFFSET 2.774864 0.000000 -0.000027
												CHANNELS 3 Xrotation Yrotation Zrotation
												End Site
												{
													OFFSET 2.774872 -0.000015 -0.000099
												}
											}
										}
									}
								}
								JOINT LeftHandMiddle1
								{
									OFFSET 9.533401 0.000031 0.000044
									CHANNELS 6 Xposition Yposition Zposition Xrotation Yrotation Zrotation
									JOINT LeftHandMiddle2
									{
										OFFSET 3.699997 -0.000015 -0.000231
										CHANNELS 3 Xrotation Yrotation Zrotation
										JOINT LeftHandMiddle3
										{
											OFFSET 2.950005 0.000000 -0.000060
											CHANNELS 3 Xrotation Yrotation Zrotation
											JOINT LeftHandMiddle4
											{
												OFFSET 2.952858 0.000000 0.000063
												CHANNELS 3 Xrotation Yrotation Zrotation
												End Site
												{
													OFFSET 2.952866 0.000000 0.000228
												}
											}
										}
									}
								}
								JOINT LeftHandRing1
								{
									OFFSET 9.104530 -0.043030 -1.865074
									CHANNELS 6 Xposition Yposition Zposition Xrotation Yrotation Zrotation
									JOINT LeftHandRing2
									{
										OFFSET 3.150002 -0.000015 0.000042
										CHANNELS 3 Xrotation Yrotation Zrotation
										JOINT LeftHandRing3
										{
											OFFSET 2.949997 0.000000 0.000037
											CHANNELS 3 Xrotation Yrotation Zrotation
											JOINT LeftHandRing4
											{
												OFFSET 2.644318 -0.000015 0.000059
												CHANNELS 3 Xrotation Yrotation Zrotation
												End Site
												{
													OFFSET 2.644318 0.000000 0.000121
												}
											}
										}
									}
								}
								JOINT LeftHandPinky1
								{
									OFFSET 8.077782 -0.486877 -3.806256
									CHANNELS 6 Xposition Yposition Zposition Xrotation Yrotation Zrotation
									JOINT LeftHandPinky2
									{
										OFFSET 3.599968 0.000031 0.014726
										CHANNELS 3 Xrotation Yrotation Zrotation
										JOINT LeftHandPinky3
										{
											OFFSET 2.099991 0.000015 0.007705
											CHANNELS 3 Xrotation Yrotation Zrotation
											JOINT LeftHandPinky4
											{
												OFFSET 2.125511 0.000015 0.007514
												CHANNELS 3 Xrotation Yrotation Zrotation
												End Site
												{
													OFFSET 2.125526 0.000015 0.006258
												}
											}
										}
									}
								}
							}
						}
					}
				}
			}
		}
	}
	JOINT RightUpLeg
	{
		OFFSET -8.207787 -6.751671 -1.599560
		CHANNELS 6 Xposition Yposition Zposition Xrotation Yrotation Zrotation
		JOINT RightLeg
		{
			OFFSET -0.000001 -44.370113 0.345939
			CHANNELS 3 Xrotation Yrotation Zrotation
			JOINT RightFoot
			{
				OFFSET 0.000001 -44.423676 -3.043536
				CHANNELS 3 Xrotation Yrotation Zrotation
				JOINT RightToeBase
				{
					OFFSET -0.000003 -8.728670 10.710561
					CHANNELS 3 Xrotation Yrotation Zrotation
					JOINT RightToe_End
					{
						OFFSET -0.000003 -0.000677 9.278120
						CHANNELS 3 Xrotation Yrotation Zrotation
						End Site
						{
							OFFSET -0.000003 -0.000677 9.278120
						}
					}
				}
			}
		}
	}
	JOINT LeftUpLeg
	{
		OFFSET 8.207791 -6.751701 -1.599555
		CHANNELS 6 Xposition Yposition Zposition Xrotation Yrotation Zrotation
		JOINT LeftLeg
		{
			OFFSET -0.000002 -44.370033 0.346958
			CHANNELS 3 Xrotation Yrotation Zrotation
			JOINT LeftFoot
			{
				OFFSET 0.000000 -44.423653 -3.044392
				CHANNELS 3 Xrotation Yrotation Zrotation
				JOINT LeftToeBase
				{
					OFFSET -0.000003 -8.728668 10.710560
					CHANNELS 3 Xrotation Yrotation Zrotation
					JOINT LeftToe_End
					{
						OFFSET -0.000003 -0.000677 9.278137
						CHANNELS 3 Xrotation Yrotation Zrotation
						End Site
						{
							OFFSET -0.000003 -0.000677 9.278137
						}
					}
				}
			}
		}
	}
}
MOTION
Frames: 4
Frame Time: 0.033333
0.817573 101.431618 1.511810 -0.893149 1.579342 -5.597703 -0.000005 10.181595 0.131520 0.514674 -0.051491 3.605828 1.030275 -0.093035 5.732471 1.030279 -0.093038 5.732467 0.000004 16.740402 -2.049035 1.046611 -0.298137 -2.174056 0.000004 9.617882 1.685009 1.574061 0.544177 -8.140515 0.000002 22.037354 7.501097 0.000000 -0.000000 -0.000000 -4.569968 11.014907 -2.160883 4.515896 3.326111 5.472525 -1.219915 0.655939 67.339354 -0.000749 17.728403 0.002431 -10.655167 -8.928159 10.233552 -2.464807 -1.573981 2.681859 18.317932 0.249049 -11.212495 0.981497 -31.845132 3.405496 0.517445 -7.830966 -1.685562 0.000001 -0.000002 0.000002 -9.108278 -0.517859 2.259836 0.348909 -4.703613 7.887485 0.348641 -2.613012 20.596529 -0.220296 -0.086319 13.852200 -0.000000 0.000001 -0.000001 -9.532495 -0.000056 -0.000023 0.905539 -8.770845 15.906800 0.788297 -3.579051 33.037635 -1.463473 3.220392 16.542956 0.000001 0.000002 0.000004 -9.103581 -0.043074 -1.865128 2.429484 -11.431655 26.363381 1.609916 -3.641541 40.770509 -1.913697 4.525502 19.267544 0.000000 -0.000000 -0.000001 -8.076694 -0.486723 -3.806281 5.450095 -15.743350 37.049767 1.092354 -3.625295 45.656475 -1.769965 3.210042 12.622468 -0.000001 -0.000001 -0.000004 4.570452 11.014713 -2.160855 3.582342 -13.764037 -5.044394 4.032814 3.507393 -83.677795 -0.000026 -14.506786 -0.000062 -27.047158 3.499786 -9.456419 2.466122 -1.576211 2.681733 18.297296 -0.356626 11.184327 1.022293 31.959763 -3.386326 0.701502 8.816915 2.370608 -0.000003 -0.000006 0.000001 9.109303 -0.518037 2.259868 0.345898 4.680523 -7.893926 0.354716 2.652759 -20.597002 0.025820 0.710430 -10.183266 0.000001 -0.000001 -0.000002 9.533405 0.000027 0.000041 0.889308 8.712432 -15.911248 0.809273 3.671920 -33.039838 0.167772 1.399879 -12.687385 0.000001 0.000001 -0.000005 9.104541 -0.043058 -1.865076 2.438815 11.448326 -26.372144 1.605117 3.617013 -40.769737 0.513569 1.664454 -19.434823 0.000001 -0.000000 0.000001 8.077795 -0.486881 -3.806266 5.635783 15.977213 -37.108609 1.354359 3.586985 -45.666648 0.513743 2.645475 -20.541886 0.000001 0.000000 -0.000003 -8.207788 -6.751660 -1.599559 -1.695747 -5.041606 10.967832 13.240364 -5.072810 3.262428 -10.528487 1.061745 -7.872710 -0.586304 -0.000015 -0.000002 0.000000 0.000000 -0.000000 8.207790 -6.751688 -1.599555 -20.327333 10.455939 16.557418 24.265196 9.472929 2.341253 -3.639747 3.544277 -10.417842 -0.468089 -0.000008 0.000002 0.000000 0.000001 -0.000000 
0.794572 101.428864 1.501430 -0.898658 1.581707 -5.592513 -0.000004 10.181581 0.131522 0.527603 -0.059871 3.566312 1.056296 -0.109867 5.653705 1.056299 -0.109870 5.653702 0.000004 16.740391 -2.049034 1.008477 -0.294266 -2.133655 -0.000001 9.617868 1.685010 1.541908 0.517093 -7.954053 0.000002 22.037338 7.501096 -0.000000 -0.000000 -0.000000 -4.569968 11.014920 -2.160882 4.455519 3.351261 5.645420 -1.195410 0.917945 67.256921 0.580399 17.672211 -0.179991 -10.691583 -8.513509 10.011276 -2.464807 -1.573971 2.681863 18.317936 0.249042 -11.212501 0.981488 -31.845129 3.405494 0.517455 -7.830972 -1.685531 0.000000 -0.000003 -0.000001 -9.108284 -0.517860 2.259838 0.348923 -4.703615 7.887495 0.348628 -2.613008 20.596519 -0.220293 -0.086323 13.852217 -0.000000 -0.000000 -0.000004 -9.532491 -0.000042 -0.000021 0.905549 -8.770845 15.906816 0.788294 -3.579047 33.037635 -1.463474 3.220386 16.542950 0.000000 0.000001 0.000006 -9.103600 -0.043082 -1.865128 2.429480 -11.431663 26.363419 1.609929 -3.641550 40.770495 -1.913709 4.525513 19.267533 0.000001 -0.000001 -0.000004 -8.076698 -0.486714 -3.806277 5.450105 -15.743347 37.049791 1.092339 -3.625293 45.656451 -1.769966 3.210035 12.622469 -0.000002 -0.000002 -0.000004 4.570449 11.014730 -2.160854 3.526196 -13.677615 -5.120099 3.981198 3.305896 -83.456695 0.458419 -14.514227 0.121432 -26.749106 3.232106 -9.313533 2.466146 -1.576216 2.681729 18.297346 -0.345365 11.195939 1.022305 31.959756 -3.386342 0.701500 8.816906 2.370598 -0.000004 -0.000001 0.000001 9.109317 -0.518058 2.259869 0.346163 4.682523 -7.916000 0.354657 2.652572 -20.594777 0.025814 0.710428 -10.183274 0.000002 0.000001 0.000002 9.533422 0.000026 0.000041 0.889859 8.714357 -15.933356 0.809166 3.671751 -33.037635 0.167771 1.399881 -12.687395 0.000001 0.000000 0.000001 9.104560 -0.043052 -1.865076 2.439716 11.450103 -26.394358 1.604987 3.616867 -40.767524 0.513570 1.664465 -19.434837 -0.000002 0.000001 -0.000001 8.077806 -0.486890 -3.806265 5.635774 15.977209 -37.108568 1.354360 3.586995 -45.666624 0.513738 2.645473 -20.541902 0.000001 0.000000 -0.000001 -8.207784 -6.751657 -1.599560 -1.700627 -5.049368 10.976925 13.251823 -5.072098 3.262508 -10.530451 1.061074 -7.888069 -0.575731 0.003305 0.010649 0.000000 0.000000 -0.000000 8.207789 -6.751688 -1.599555 -20.327210 10.457296 16.566229 24.256201 9.466696 2.339799 -3.627218 3.542510 -10.415472 -0.463930 0.000319 -0.006810 0.000000 -0.000002 -0.000000 
0.770427 101.428528 1.492551 -0.910026 1.588921 -5.584132 -0.000005 10.181586 0.131520 0.542468 -0.068324 3.525787 1.086179 -0.126650 5.572778 1.086179 -0.126652 5.572778 0.000000 16.740385 -2.049035 0.964155 -0.287061 -2.096923 0.000002 9.617898 1.685009 1.500434 0.494489 -7.758626 0.000001 22.037369 7.501095 0.000000 -0.000000 0.000000 -4.569971 11.014877 -2.160882 4.393126 3.378310 5.813743 -1.158989 1.166700 67.180320 1.157186 17.632606 -0.361390 -10.725234 -8.100188 9.775547 -2.464799 -1.573966 2.681861 18.317932 0.249037 -11.212480 0.981493 -31.845132 3.405484 0.517458 -7.830965 -1.685539 0.000004 -0.000003 -0.000001 -9.108297 -0.517863 2.259838 0.348922 -4.703618 7.887481 0.348636 -2.613013 20.596504 -0.220298 -0.086316 13.852228 0.000000 -0.000000 0.000004 -9.532497 -0.000040 -0.000023 0.905549 -8.770851 15.906817 0.788292 -3.579051 33.037615 -1.463472 3.220381 16.542969 -0.000000 0.000001 -0.000005 -9.103587 -0.043067 -1.865129 2.429478 -11.431668 26.363386 1.609929 -3.641536 40.770516 -1.913707 4.525491 19.267549 -0.000002 0.000000 -0.000003 -8.076681 -0.486727 -3.806279 5.450099 -15.743359 37.049781 1.092343 -3.625301 45.656461 -1.769970 3.210032 12.622468 0.000000 -0.000000 -0.000002 4.570448 11.014701 -2.160855 3.468864 -13.592714 -5.196852 3.930645 3.104114 -83.235151 0.933549 -14.522601 0.247524 -26.441863 2.955627 -9.156351 2.466132 -1.576207 2.681727 18.297553 -0.312262 11.229945 1.022328 31.959756 -3.386406 0.701497 8.816908 2.370609 0.000004 0.000003 0.000002 9.109296 -0.518048 2.259870 0.346991 4.688398 -7.980918 0.354464 2.652102 -20.589312 0.025833 0.710436 -10.183267 0.000002 -0.000002 -0.000002 9.533426 0.000028 0.000041 0.891503 8.720019 -15.998490 0.808894 3.671340 -33.032106 0.167774 1.399875 -12.687397 0.000001 0.000001 -0.000002 9.104545 -0.043041 -1.865075 2.442382 11.455336 -26.459750 1.604667 3.616494 -40.762036 0.513565 1.664454 -19.434818 -0.000002 -0.000001 -0.000004 8.077776 -0.486886 -3.806266 5.635801 15.977209 -37.108609 1.354347 3.586984 -45.666624 0.513737 2.645468 -20.541891 0.000001 0.000002 -0.000003 -8.207784 -6.751666 -1.599559 -1.690623 -5.051076 10.985260 13.245574 -5.077104 3.261558 -10.525024 1.060454 -7.903299 -0.567207 0.003331 0.015752 0.000000 -0.000001 -0.000000 8.207788 -6.751707 -1.599557 -20.312767 10.460286 16.569914 24.233071 9.462714 2.338111 -3.611435 3.539915 -10.406765 -0.456699 -0.003024 -0.014384 0.000000 -0.000001 -0.000000 
0.745046 101.429207 1.485147 -0.923698 1.593392 -5.575312 -0.000005 10.181605 0.131520 0.559971 -0.073778 3.484983 1.121250 -0.137284 5.491055 1.121251 -0.137286 5.491057 0.000004 16.740381 -2.049034 0.906515 -0.279696 -2.061939 0.000000 9.617894 1.685006 1.452501 0.474403 -7.562794 0.000002 22.037369 7.501093 0.000001 0.000000 0.000000 -4.569970 11.014912 -2.160881 4.328731 3.409335 5.983352 -1.113676 1.424677 67.097709 1.739895 17.588628 -0.544379 -10.754817 -7.674808 9.536416 -2.464807 -1.573961 2.681864 18.317922 0.249045 -11.212487 0.981490 -31.845135 3.405486 0.517453 -7.830965 -1.685547 0.000001 -0.000006 0.000002 -9.108294 -0.517860 2.259837 0.348914 -4.703610 7.887488 0.348620 -2.613015 20.596516 -0.220285 -0.086322 13.852216 0.000000 0.000000 -0.000001 -9.532517 -0.000048 -0.000023 0.905531 -8.770843 15.906831 0.788306 -3.579052 33.037622 -1.463484 3.220388 16.542957 -0.000001 0.000001 -0.000002 -9.103588 -0.043072 -1.865128 2.429468 -11.431656 26.363417 1.609920 -3.641544 40.770516 -1.913702 4.525499 19.267535 -0.000000 -0.000000 0.000001 -8.076694 -0.486725 -3.806280 5.450086 -15.743349 37.049774 1.092348 -3.625295 45.656481 -1.769971 3.210029 12.622476 -0.000001 -0.000002 -0.000003 4.570447 11.014704 -2.160854 3.412339 -13.506822 -5.261723 3.875239 2.897590 -83.026571 1.429080 -14.535467 0.379328 -26.126797 2.672016 -8.970738 2.466130 -1.576224 2.681735 18.297836 -0.258359 11.285371 1.022320 31.959763 -3.386377 0.701495 8.816907 2.370604 0.000004 0.000007 0.000007 9.109301 -0.518031 2.259870 0.348337 4.697954 -8.086546 0.354237 2.651502 -20.582283 0.025826 0.710434 -10.183294 0.000001 -0.000002 0.000001 9.533420 0.000012 0.000039 0.894170 8.729219 -16.104416 0.808550 3.670809 -33.025081 0.167779 1.399876 -12.687390 0.000001 -0.000002 -0.000003 9.104532 -0.043040 -1.865076 2.446710 11.463854 -26.566156 1.604251 3.616011 -40.754970 0.513575 1.664460 -19.434839 -0.000001 0.000001 0.000004 8.077800 -0.486880 -3.806265 5.635790 15.977208 -37.108595 1.354353 3.586981 -45.666621 0.513735 2.645473 -20.541898 0.000001 0.000001 -0.000001 -8.207788 -6.751655 -1.599559 -1.672890 -5.049886 10.994435 13.229836 -5.082233 3.260560 -10.515837 1.060039 -7.919513 -0.560295 0.004274 0.018579 -0.000000 -0.000001 -0.000000 8.207788 -6.751688 -1.599555 -20.290440 10.461724 16.572371 24.204310 9.463690 2.336672 -3.597949 3.536801 -10.394300 -0.445868 -0.004313 -0.024225 -0.000000 -0.000000 -0.000000 
